<?xml version="1.0" encoding="UTF-8"?>
<svg id="Layer_3" data-name="Layer 3" xmlns="http://www.w3.org/2000/svg" viewBox="0 0 145.64 266.39">
  <defs>
    <style>
      .cls-1 {
        fill: #3d5900;
      }

      .cls-2 {
        fill: #fff;
        stroke: #fff;
        stroke-miterlimit: 10;
        stroke-width: 4.31px;
      }
    </style>
  </defs>
  <g>
    <path class="cls-2" d="M60.6,89.55c.32.32,1.17-.29,1.48-.41,1.09-.41,4.28-1.73,5.16-1.89,1.01-.18,2.41-.06,3.69-.23,1.14-.15,2.72.45,3.2,1.56.1.24.44,1.35.44,1.57,0,.29-.38.83-.59,1.06-.34.36-.73-.12-.89-.4-.47-.84-.03-1.59-1.34-1.77-3.39-.47-7.21,1.96-10.15,3.4-.92.45-2.18.77-3.04,1.31-.76.48-2.19,2.8-2.82,3.64-.73.98-2.39,2.93-2.94,3.9-.25.44-.28.98-.47,1.4-1.58,3.42-3.42,6.7-4.65,10.27-.17.81.72.58,1.31.66.16.02.6.26.65.19.03-.04,0-.34.12-.53.62-1.01,2.84-1.41,3.74-2.28s1.23-2.67,1.85-3.73c1.41-2.4,4.36-5.18,6.62-6.8.44-.31,1.1-.72,1.66-.67.23.02.47.19.74.21,1.13.06,2.66-.29,3.27.86.56,1.04-.05,2.66-.84,3.46-.86.86-3.64,2.74-4.75,3.28-.81.39-1.96.45-2.57.86-.36.24-1.24,1.77-1.46,2.24-.15.32-.93,2.2-.96,2.39-.21,1.4,2.38.7,3.11.49.3-.09.96-.3,1.21-.42.55-.25,1.59-1.23,2.04-1.26.55-.04,1.12.66.94,1.2-.15.46-2.39,1.98-2.92,2.2s-3.8.64-4.36.57c-1.01-.14-2.41-1.02-2.91-1.92-.14-.24-.22-.88-.26-.92-.25-.28-2.13,1.22-2.78,1.28-.44.04-.89-.44-1.36-.31-.28.08-.31.55-.5.8-.51.67-2.52.81-3.13.24-.79-.72-.77-3.2-.78-4.25,0-.62-.67-.05-.93.15-2.45,1.86-4.11,4.9-7.76,4.22-.71-.13-1.76-1.25-1.69-1.98.1-1.04.71-1.85-.89-.59-1.26.99-2.3,2.29-3.83,2.94s-4.19.76-5.25-.68c-.61-.83-.41-1.63-.79-2.46-.08-.17.07-.32-.28-.23-.55.14-2.07,1.33-2.65,1.73-2.87,1.96-7.1,4.59-10.66,4.75-1.37.06-2.8-.09-3.97-.89s-2.77-2.92-2.89-4.41c-.08-1.02.22-2.04.55-3,.75-2.19,1.88-4.13,2.96-6.16,1-1.87,1.78-3.09,3-4.78.23-.31,1.59-2.34,1.59-2.49,0-.41-1.22-.27-1.54-.34-1.33-.28-2.59-.75-3.87-1.18-1.14-.38-3.04-.71-3.55-2.01-.09-.22-.13-1.03-.06-1.1.26-.25,3.12,1.27,3.66,1.47,1.18.42,3.01.89,4.24,1.02.69.07,2.7.21,3.27.07.99-.23,1.84-1.61,2.5-2.27,2.22-2.19,5.37-4.44,8.04-6.04,3.9-2.34,7.55-4.86,11.92-6.25.28-.09.55-.22.87-.19.23.02,1.44.25,1.57.32.21.11,1.32,1.53,1.37,1.74.1.38.03,1.33-.11,1.72-.08.22-1.34,2.04-1.57,2.31-1.28,1.56-3.17,2.9-4.77,4.12-1.24.94-2.54,1.81-3.82,2.66-1.42.95-4.39,2.1-6.12,2.58-1.28.36-4.37.61-5.22,1.07-.51.28-2.26,2.03-2.77,2.55-2.31,2.38-6.92,7.73-8.19,10.64-.3.68-1.19,3.03-1.24,3.64-.06.84,1,2.41,1.8,2.77.73.33,2.34.34,3.15.25,2.39-.26,6.67-2.95,8.65-4.28,2.23-1.49,5-3.39,6.67-5.38,1.32-1.57,2.19-1.44,3.39-2.46.58-.49,1.54-2.11,2.2-2.21.83-.12,1.65-.05,1.72.88.11,1.45-.89,2.6-1.71,3.71s-1.91,2.3-2.75,3.53c-.38.55-2.27,3.35-1.82,3.85.06.07,1.54-.43,1.74-.52,1.35-.6,2.77-2.17,3.9-3.06,1.51-1.19,3.07-2.19,4.46-3.6.64-.65,2.48-3.1,3.24-3.2.51-.07,1.2.21,1.33.73.03.14-.2,1.5-.26,1.75-.24.93-.81,1.14-1.2,1.76-.81,1.27-1.78,3.16-2.32,4.56-.07.18-.33.54-.08.67,1.12-.62,1.97-1.57,2.93-2.38,2.89-2.45,5.36-4.5,7.18-7.92.75-1.4,1.53-2.77,2.33-4.17.51-.88.85-1.88,1.49-2.68-1,.21-2.02.42-3.01.68-3.28.86-6.55,1.45-10.02,1.08-.36-.04-1.1-.16-1.41-.28-.1-.04-1.44-1.25-1.56-1.39-.45-.54-.4-1.71-.24-2.36.23-.96,1.57-2.46,2.51-2.83.44-.17,1.83-.57,2.27-.62,1.22-.14,2.14.65,1.85,1.9-1.76.16-3.92.19-4.8,1.99-.66,1.34.48,1.61,1.64,1.58,1.06-.03,2.7.03,3.63-.1.57-.08,1.16-.47,1.76-.59,1.95-.38,4.35-.96,6.22-1.7,1.32-.53,2.74-1.53,4.08-2.1,1.86-2.63,3.23-5.85,5.1-8.43.57-.78.9-1.26,1.44-2.08.75-1.16,1.96-2.17,3.02-.7-.24.63-.12,1.35-.27,1.94-.39,1.57-1.76,2.9-2.23,4.08-.13.33-.09.7-.26,1.05s-1.96,2.01-1.6,2.38ZM21.85,94.06c.09.09,2.15-.59,2.46-.69,1.01-.34,3.84-1.27,4.6-1.73.53-.32,1.42-1.12,2.07-1.59,2.14-1.5,4.38-3.08,6.16-5,.27-.29,1.81-2.22,1.8-2.39-.08-1.58-2.66,0-3.29.41-4.26,2.8-8.15,6.3-12.29,9.29.02.42-1.78,1.46-1.53,1.69Z"/>
    <path class="cls-2" d="M123.23,97.28c1.82-1,4.01-3.29,3.85-5.56-.02-.3-.1-.6-.19-.89-.47-1.66-.94-2.7-2.28-3.84-.83-.71-2.33-1.97-3.5-1.97-5.28-1.08-9.54-.08-14.32,2.05-.57.25-3.44,1.69-3.73,1.97-.25.25-.25.64-.44.92-1.41,2.11-1.21,3.57-2.29,5.54-2.58,4.72-4.38,9.82-7.5,14.33.03.42-.88,1.71-.71,1.95.04.05,3.4-.92,3.63-1.02.35-.14.67-.35,1.04-.39,1.13-.12,1.38-1.44,1.84-2.36,1.9-3.76,4.55-7.4,8.62-9.04,1.16-.1,2.15-1.02,3.34-.48s.39,3.42-.11,4.26c-.27.46-.99.88-1.32,1.27-2.06,2.46-2.98,3.55-5.71,5.36-.48.32-1.8.8-2.08,1.13-.24.29-.65,1.54-.6,1.9.01.1.3.74.35.75.14.03,1.51-.03,1.75-.05,2.53-.28,5.26-2.9,7.56-4.02,2.31-1.99,4.66-4.03,7.45-5.23.93-.4,1.24-.84,2.43-1.32.97-.39,1.47-.86,2.27-1.3s3.62-1.08,4.47-.97c.67.09,1.36.62,1.79.74.2.06.6-.38,1.42-.12,1.65.52.97,2.2.57,3.41-.68,2.07-2.38,4.22-3,6.33-.16.56-.42,2.2.33,2.36.85.18,1.5-.46,2.09-.9,1.39-1.04,2.96-1.58,4.28-2.75,1.63-1.44,3.14-3,4.77-4.44.26-.23.75-.63,1.03-.8.17-.1,1.46-.7,1.58-.73.56-.11.9.37.82.87-.01.06-.54,1-.62,1.11-.23.34-.62.33-.84.51-.47.39-.99,1-1.46,1.4-2.29,1.96-4.48,4.06-7,5.71-.6.4-3.76,2.26-4.23,2.28-1.33.05-2.94-1.39-3.85-2.28-.51-.5-.62-1.25-1.49-.84-.4.19-.65.68-.94.91-.25.19-.55.26-.81.44-1.01.73-2.42,2.02-3.78,1.53-1.89-.68-3.6-2.06-3.43-4.35.05-.69.49-.92.23-1.78-.06-.19-.3-.2-.44-.16-.09.02-1.06.99-1.37,1.2-.74.53-1.43,1.13-2.19,1.63-.8.53-1.78.76-2.55,1.32-1.3.94-2.16,1.93-3.8,2.35-.83.21-3.16.43-3.91.16-.28-.1-1.21-1.07-1.44-1.35-.26-.33-.78-1.33-.92-1.43-.71-.51-2.58.74-3.34,1-1.28.44-2.68.54-3.94.83s-1,.73-1.61,1.53c-1.42,1.84-3.32,3.92-5.56,4.7-1.65.57-2.49.75-3.73-.63-.78-.87-.57-2.25-.11-3.22.54-1.14,2.27-1.73,3.25-2.46.77-.58,1.79-1.12,2.72-1.36.24-.06.56.07.79-.03.2-.09,1.44-2.1,1.57-2.43.98-2.48,1.9-4.22,3.13-6.58.52-1,.91-2.06,1.41-3.06.39-.79.96-1.39,1.54-2.04.65-.74.74-1.32.97-2.26.27-1.14,1.15-1.9,1.58-2.95.06-.15.71-1.08.13-.9-.24.08-.8.66-1.15.85-.69.39-1.48.54-2.12.86-2.39,1.18-4.51,2.41-7.16,3.04-2.89.68-5.75-.24-6.84-3.18-.05-.15-.1-.3-.11-.46-.01-.21.05-.41.1-.61.43-1.66.62-3.06,1.79-4.39.89-1.01,1.91-2.22,3.05-2.94,3-1.88,6.32-2.98,9.88-2.03.67.18.97.72,1.41.88,1,.37,1.17.12,2.05,1.05.34.36.68,1.42,1.14,1.59.67.25,1.87-.93,2.42-1.3,1.69-1.14,3.59-1.7,5.49-2.36,1.24-.43,6.18-2.12,7.21-1.92,2.41.46,5.02.26,7.49.81,1.45.32,4.33,2.31,5.29,3.47.38.46,1.47,1.98,1.7,2.46.13.27.65,2.15.66,2.44.04,1.17-.67,3.81-1.32,4.8-.27.41-.61.52-.82.85s-.26.86-.46,1.1c-.23.27-2.6,1.63-3.04,1.8-1.41.55-3.35.64-4.85.52-.81-.07-1.62-.3-1.6-1.25,0-.33.03-.66.4-.74l4.2-.08c.58-.19,1.12-.45,1.65-.74ZM90.87,85.74c-2.1.09-4.76,1.79-6.19,3.24-.91.92-1.92,1.87-2.58,3.04-.4.72-.64,1.27-.33,2.11.46,1.22,1.93,1.33,3.08,1.25.92-.06,1.42-.49,2.19-.78,2.05-.76,4.34-1.97,6.2-3.23,1.04-.7,1.96-1.58,2.98-2.3.22-.15,1.19-.59,1.21-.76,0-.07-.74-1.01-.87-1.13-.89-.86-4.42-1.5-5.7-1.45ZM127.15,103.24c-.25-.35-2.07.33-2.46.52-2.08.99-5.25,3.88-6.22,5.97-.22.46-1.03,2.45-.69,2.76.82.74,3.44-1.41,4.07-1.97s1.98-1.81,2.44-2.36c.31-.37.41-.98.7-1.43.49-.77,1.56-1.53,1.93-2.39.09-.22.3-1,.23-1.09ZM85.36,115.35c-.13-.19-1.96,1.12-2.32,1.14-.66-.12-1.47-.19-1.61.65-.01.08-.01,1.16.02,1.22.2.34,1.82-.48,2.14-.73.41-.33,1.05-1.15,1.39-1.6.11-.15.5-.51.38-.67Z"/>
    <path class="cls-2" d="M79.97,106.64c2.82-.7,2.6,2.44.1,2.2-1.27.71-2.22,1.64-3.76,1.49-.92-.09-2.1-.7-2.91-.67-.75.03-1.37.75-1.85.69-.79-.09-.85-1.35-.37-1.93.19-.23,1.89-1.61,2.14-1.7,1.06-.38,1.81.03,2.76.11,1.7.14,2.31.21,3.91-.19Z"/>
  </g>
  <g>
    <path class="cls-1" d="M60.6,89.55c.32.32,1.17-.29,1.48-.41,1.09-.41,4.28-1.73,5.16-1.89,1.01-.18,2.41-.06,3.69-.23,1.14-.15,2.72.45,3.2,1.56.1.24.44,1.35.44,1.57,0,.29-.38.83-.59,1.06-.34.36-.73-.12-.89-.4-.47-.84-.03-1.59-1.34-1.77-3.39-.47-7.21,1.96-10.15,3.4-.92.45-2.18.77-3.04,1.31-.76.48-2.19,2.8-2.82,3.64-.73.98-2.39,2.93-2.94,3.9-.25.44-.28.98-.47,1.4-1.58,3.42-3.42,6.7-4.65,10.27-.17.81.72.58,1.31.66.16.02.6.26.65.19.03-.04,0-.34.12-.53.62-1.01,2.84-1.41,3.74-2.28s1.23-2.67,1.85-3.73c1.41-2.4,4.36-5.18,6.62-6.8.44-.31,1.1-.72,1.66-.67.23.02.47.19.74.21,1.13.06,2.66-.29,3.27.86.56,1.04-.05,2.66-.84,3.46-.86.86-3.64,2.74-4.75,3.28-.81.39-1.96.45-2.57.86-.36.24-1.24,1.77-1.46,2.24-.15.32-.93,2.2-.96,2.39-.21,1.4,2.38.7,3.11.49.3-.09.96-.3,1.21-.42.55-.25,1.59-1.23,2.04-1.26.55-.04,1.12.66.94,1.2-.15.46-2.39,1.98-2.92,2.2s-3.8.64-4.36.57c-1.01-.14-2.41-1.02-2.91-1.92-.14-.24-.22-.88-.26-.92-.25-.28-2.13,1.22-2.78,1.28-.44.04-.89-.44-1.36-.31-.28.08-.31.55-.5.8-.51.67-2.52.81-3.13.24-.79-.72-.77-3.2-.78-4.25,0-.62-.67-.05-.93.15-2.45,1.86-4.11,4.9-7.76,4.22-.71-.13-1.76-1.25-1.69-1.98.1-1.04.71-1.85-.89-.59-1.26.99-2.3,2.29-3.83,2.94s-4.19.76-5.25-.68c-.61-.83-.41-1.63-.79-2.46-.08-.17.07-.32-.28-.23-.55.14-2.07,1.33-2.65,1.73-2.87,1.96-7.1,4.59-10.66,4.75-1.37.06-2.8-.09-3.97-.89s-2.77-2.92-2.89-4.41c-.08-1.02.22-2.04.55-3,.75-2.19,1.88-4.13,2.96-6.16,1-1.87,1.78-3.09,3-4.78.23-.31,1.59-2.34,1.59-2.49,0-.41-1.22-.27-1.54-.34-1.33-.28-2.59-.75-3.87-1.18-1.14-.38-3.04-.71-3.55-2.01-.09-.22-.13-1.03-.06-1.1.26-.25,3.12,1.27,3.66,1.47,1.18.42,3.01.89,4.24,1.02.69.07,2.7.21,3.27.07.99-.23,1.84-1.61,2.5-2.27,2.22-2.19,5.37-4.44,8.04-6.04,3.9-2.34,7.55-4.86,11.92-6.25.28-.09.55-.22.87-.19.23.02,1.44.25,1.57.32.21.11,1.32,1.53,1.37,1.74.1.38.03,1.33-.11,1.72-.08.22-1.34,2.04-1.57,2.31-1.28,1.56-3.17,2.9-4.77,4.12-1.24.94-2.54,1.81-3.82,2.66-1.42.95-4.39,2.1-6.12,2.58-1.28.36-4.37.61-5.22,1.07-.51.28-2.26,2.03-2.77,2.55-2.31,2.38-6.92,7.73-8.19,10.64-.3.68-1.19,3.03-1.24,3.64-.06.84,1,2.41,1.8,2.77.73.33,2.34.34,3.15.25,2.39-.26,6.67-2.95,8.65-4.28,2.23-1.49,5-3.39,6.67-5.38,1.32-1.57,2.19-1.44,3.39-2.46.58-.49,1.54-2.11,2.2-2.21.83-.12,1.65-.05,1.72.88.11,1.45-.89,2.6-1.71,3.71s-1.91,2.3-2.75,3.53c-.38.55-2.27,3.35-1.82,3.85.06.07,1.54-.43,1.74-.52,1.35-.6,2.77-2.17,3.9-3.06,1.51-1.19,3.07-2.19,4.46-3.6.64-.65,2.48-3.1,3.24-3.2.51-.07,1.2.21,1.33.73.03.14-.2,1.5-.26,1.75-.24.93-.81,1.14-1.2,1.76-.81,1.27-1.78,3.16-2.32,4.56-.07.18-.33.54-.08.67,1.12-.62,1.97-1.57,2.93-2.38,2.89-2.45,5.36-4.5,7.18-7.92.75-1.4,1.53-2.77,2.33-4.17.51-.88.85-1.88,1.49-2.68-1,.21-2.02.42-3.01.68-3.28.86-6.55,1.45-10.02,1.08-.36-.04-1.1-.16-1.41-.28-.1-.04-1.44-1.25-1.56-1.39-.45-.54-.4-1.71-.24-2.36.23-.96,1.57-2.46,2.51-2.83.44-.17,1.83-.57,2.27-.62,1.22-.14,2.14.65,1.85,1.9-1.76.16-3.92.19-4.8,1.99-.66,1.34.48,1.61,1.64,1.58,1.06-.03,2.7.03,3.63-.1.57-.08,1.16-.47,1.76-.59,1.95-.38,4.35-.96,6.22-1.7,1.32-.53,2.74-1.53,4.08-2.1,1.86-2.63,3.23-5.85,5.1-8.43.57-.78.9-1.26,1.44-2.08.75-1.16,1.96-2.17,3.02-.7-.24.63-.12,1.35-.27,1.94-.39,1.57-1.76,2.9-2.23,4.08-.13.33-.09.7-.26,1.05s-1.96,2.01-1.6,2.38ZM21.85,94.06c.09.09,2.15-.59,2.46-.69,1.01-.34,3.84-1.27,4.6-1.73.53-.32,1.42-1.12,2.07-1.59,2.14-1.5,4.38-3.08,6.16-5,.27-.29,1.81-2.22,1.8-2.39-.08-1.58-2.66,0-3.29.41-4.26,2.8-8.15,6.3-12.29,9.29.02.42-1.78,1.46-1.53,1.69Z"/>
    <path class="cls-1" d="M123.23,97.28c1.82-1,4.01-3.29,3.85-5.56-.02-.3-.1-.6-.19-.89-.47-1.66-.94-2.7-2.28-3.84-.83-.71-2.33-1.97-3.5-1.97-5.28-1.08-9.54-.08-14.32,2.05-.57.25-3.44,1.69-3.73,1.97-.25.25-.25.64-.44.92-1.41,2.11-1.21,3.57-2.29,5.54-2.58,4.72-4.38,9.82-7.5,14.33.03.42-.88,1.71-.71,1.95.04.05,3.4-.92,3.63-1.02.35-.14.67-.35,1.04-.39,1.13-.12,1.38-1.44,1.84-2.36,1.9-3.76,4.55-7.4,8.62-9.04,1.16-.1,2.15-1.02,3.34-.48s.39,3.42-.11,4.26c-.27.46-.99.88-1.32,1.27-2.06,2.46-2.98,3.55-5.71,5.36-.48.32-1.8.8-2.08,1.13-.24.29-.65,1.54-.6,1.9.01.1.3.74.35.75.14.03,1.51-.03,1.75-.05,2.53-.28,5.26-2.9,7.56-4.02,2.31-1.99,4.66-4.03,7.45-5.23.93-.4,1.24-.84,2.43-1.32.97-.39,1.47-.86,2.27-1.3s3.62-1.08,4.47-.97c.67.09,1.36.62,1.79.74.2.06.6-.38,1.42-.12,1.65.52.97,2.2.57,3.41-.68,2.07-2.38,4.22-3,6.33-.16.56-.42,2.2.33,2.36.85.18,1.5-.46,2.09-.9,1.39-1.04,2.96-1.58,4.28-2.75,1.63-1.44,3.14-3,4.77-4.44.26-.23.75-.63,1.03-.8.17-.1,1.46-.7,1.58-.73.56-.11.9.37.82.87-.01.06-.54,1-.62,1.11-.23.34-.62.33-.84.51-.47.39-.99,1-1.46,1.4-2.29,1.96-4.48,4.06-7,5.71-.6.4-3.76,2.26-4.23,2.28-1.33.05-2.94-1.39-3.85-2.28-.51-.5-.62-1.25-1.49-.84-.4.19-.65.68-.94.91-.25.19-.55.26-.81.44-1.01.73-2.42,2.02-3.78,1.53-1.89-.68-3.6-2.06-3.43-4.35.05-.69.49-.92.23-1.78-.06-.19-.3-.2-.44-.16-.09.02-1.06.99-1.37,1.2-.74.53-1.43,1.13-2.19,1.63-.8.53-1.78.76-2.55,1.32-1.3.94-2.16,1.93-3.8,2.35-.83.21-3.16.43-3.91.16-.28-.1-1.21-1.07-1.44-1.35-.26-.33-.78-1.33-.92-1.43-.71-.51-2.58.74-3.34,1-1.28.44-2.68.54-3.94.83s-1,.73-1.61,1.53c-1.42,1.84-3.32,3.92-5.56,4.7-1.65.57-2.49.75-3.73-.63-.78-.87-.57-2.25-.11-3.22.54-1.14,2.27-1.73,3.25-2.46.77-.58,1.79-1.12,2.72-1.36.24-.06.56.07.79-.03.2-.09,1.44-2.1,1.57-2.43.98-2.48,1.9-4.22,3.13-6.58.52-1,.91-2.06,1.41-3.06.39-.79.96-1.39,1.54-2.04.65-.74.74-1.32.97-2.26.27-1.14,1.15-1.9,1.58-2.95.06-.15.71-1.08.13-.9-.24.08-.8.66-1.15.85-.69.39-1.48.54-2.12.86-2.39,1.18-4.51,2.41-7.16,3.04-2.89.68-5.75-.24-6.84-3.18-.05-.15-.1-.3-.11-.46-.01-.21.05-.41.1-.61.43-1.66.62-3.06,1.79-4.39.89-1.01,1.91-2.22,3.05-2.94,3-1.88,6.32-2.98,9.88-2.03.67.18.97.72,1.41.88,1,.37,1.17.12,2.05,1.05.34.36.68,1.42,1.14,1.59.67.25,1.87-.93,2.42-1.3,1.69-1.14,3.59-1.7,5.49-2.36,1.24-.43,6.18-2.12,7.21-1.92,2.41.46,5.02.26,7.49.81,1.45.32,4.33,2.31,5.29,3.47.38.46,1.47,1.98,1.7,2.46.13.27.65,2.15.66,2.44.04,1.17-.67,3.81-1.32,4.8-.27.41-.61.52-.82.85s-.26.86-.46,1.1c-.23.27-2.6,1.63-3.04,1.8-1.41.55-3.35.64-4.85.52-.81-.07-1.62-.3-1.6-1.25,0-.33.03-.66.4-.74l4.2-.08c.58-.19,1.12-.45,1.65-.74ZM90.87,85.74c-2.1.09-4.76,1.79-6.19,3.24-.91.92-1.92,1.87-2.58,3.04-.4.72-.64,1.27-.33,2.11.46,1.22,1.93,1.33,3.08,1.25.92-.06,1.42-.49,2.19-.78,2.05-.76,4.34-1.97,6.2-3.23,1.04-.7,1.96-1.58,2.98-2.3.22-.15,1.19-.59,1.21-.76,0-.07-.74-1.01-.87-1.13-.89-.86-4.42-1.5-5.7-1.45ZM127.15,103.24c-.25-.35-2.07.33-2.46.52-2.08.99-5.25,3.88-6.22,5.97-.22.46-1.03,2.45-.69,2.76.82.74,3.44-1.41,4.07-1.97s1.98-1.81,2.44-2.36c.31-.37.41-.98.7-1.43.49-.77,1.56-1.53,1.93-2.39.09-.22.3-1,.23-1.09ZM85.36,115.35c-.13-.19-1.96,1.12-2.32,1.14-.66-.12-1.47-.19-1.61.65-.01.08-.01,1.16.02,1.22.2.34,1.82-.48,2.14-.73.41-.33,1.05-1.15,1.39-1.6.11-.15.5-.51.38-.67Z"/>
    <path class="cls-1" d="M79.97,106.64c2.82-.7,2.6,2.44.1,2.2-1.27.71-2.22,1.64-3.76,1.49-.92-.09-2.1-.7-2.91-.67-.75.03-1.37.75-1.85.69-.79-.09-.85-1.35-.37-1.93.19-.23,1.89-1.61,2.14-1.7,1.06-.38,1.81.03,2.76.11,1.7.14,2.31.21,3.91-.19Z"/>
  </g>
</svg>