<?xml version="1.0" encoding="UTF-8"?>
<svg id="Layer_1" data-name="Layer 1" xmlns="http://www.w3.org/2000/svg" viewBox="0 0 137 256">
  <defs>
    <style>
      .cls-1 {
        fill: #3d5900;
      }

      .cls-2 {
        fill: #edffb6;
      }

      .cls-3 {
        fill: #ff9d8b;
      }

      .cls-4 {
        fill: #ffd2cc;
      }
    </style>
  </defs>
  <polygon class="cls-2" points="64.23 74.43 31.56 82.2 7.73 95.05 6.65 104.96 16.03 125.58 34.77 236.17 43.61 246.61 61.82 251.43 88.06 250.36 109.21 243.67 117.78 212.61 123.68 131.47 126.09 107.37 132.78 100.67 129.03 88.09 111.36 78.98 64.23 74.43"/>
  <polygon class="cls-4" points="107.88 6.15 64.5 85.14 64.23 91.84 72.26 93.98 84.85 89.43 106 44.44 123.14 12.04 116.71 5.61 107.88 6.15"/>
  <g>
    <path class="cls-3" d="M64.89,77.94c1,.95-6.34,11.36-1.84,15.35,2.8,2.48,7.99,2.78,11.57,2.3,1.36-.18,9.72-2.67,10.75-3.22.82-.44,1.23-1.26,1.73-2,1.62-2.4,3.95-10.02,6.49-11.35,1.03-1.94,2.34-3.76,3.53-5.6-.31-.05-.52-.1-.57-.14l28.9-59.17c-.25-8.11-9.43-11.89-16.56-10.04-3.82.99-6.31,4.25-8.48,7.41-8.73,12.67-15.35,26.58-22.05,40.36-2.21,4.54-6.65,16.32-9.78,19.09-.38.34-.73.58-1.06.75-.97,2.05-1.9,4.15-2.87,6.2.11.01.19.04.22.07ZM114.54,8.25c1.14.25,6.86,3.08,5.3,4.47-.3.27-6.46,0-7.73-.21-4.56-.79-4.59-5.79,2.44-4.26ZM104.46,14.57c1.12-1.77,1.88.4,3.53,1.16,2.71,1.25,9.63.36,9.99.72.3.3-.12,2.13-.4,2.86-3.29,8.47-11.54,19.93-15.94,28.78-4.77,9.6-11.02,21.82-14.85,30.8-.75,1.77-2.97,7.45-3.75,8.36-2.62,3.03-14.46,4.99-18.17,2.35L104.46,14.57Z"/>
    <path class="cls-1" d="M133.82,94.22c-.35-1.98-1.75-2.16-2.32-3.27-.66-1.29-.38-2.73-1.36-4.23-2.64-4.04-19.01-11.15-23.99-12.34-1.44-.34-7.19-.68-9.03-.98-1.19,1.84-2.51,3.66-3.53,5.6.21-.11.43-.19.64-.21,5.54,1.57,13.15,2.01,18.39,4.02,3.3,1.27,10.5,4.96,13.75,6.78.79.44,2.61.19,1.86,1.82-1.29,2.81-14.31,9.92-17.7,11.18-8.52,3.17-32.4,5.15-41.47,4.22-2.46-.25-4.71-1.8-6.56-1.89-2.21-.11-4.46.22-7.45.06-12.72-.69-26.38-.19-38.62-4.22-4.47-1.47-7.79-4.11-2.73-7.44,2.16-1.42,4.13-1.23,6.21-2.17,10.04-4.55,17.8-8.86,28.92-11.14,2.03-.42,14-2.41,15.84-2.16.97-2.05,1.9-4.15,2.87-6.2-1.83.98-2.96-.25-4.94-.28-17.21-.26-40.22,9.55-53.63,20.01-1.09.85-4.11,4.63-4.44,5.81-2.34,8.58,5.29,12.59,6.27,20.38,4.51,35.68,13.33,69.47,18.76,105.13.55,3.6,1.1,9.55,2.22,12.68.28.79,6.02,9.86,6.51,10.25,1.45,1.15,9.19,4.88,11.18,5.58,7.59,2.69,24.27,2.45,32.67,1.84,11.29-.82,29.51-4.22,33.56-16.74.57-1.75.14-3.52.59-5,5.92-19.62,5.3-38.57,7.24-58.9,1.39-14.57,4.87-31.14,4.71-45.64-.06-5.8.21-10.02.64-15.98.08-1.13-.82-2.17-.53-3.36.05-.21,1.8-3.18,1.96-3.28.65-.43,1.99.06,2.42-.29.83-.68,1.36-8.15,1.08-9.69ZM122.57,114.66c-3.13,27.36-5.89,54.55-8.29,82.07-.56,6.42-1.35,12.92-1.92,19.51-.42,4.89-.14,12.02-1.09,16.61-1,4.85-9.74,12.21-14.45,13.5-8.06,2.2-28.79,3.78-37.09,3.01-3.71-.34-13.18-3.96-16.24-6.12-7.45-5.26-5.6-9.09-6.53-16.75-4.23-34.73-11.26-69.78-18.89-104.07-.5-2.25-2.56-5.07-1.16-7.22,3.75,3.63,7.75,2.28,12.06,2.84,1.13.15,12.22,4.3,10.76-.51-.34-1.1-5.11-2.47-6.48-2.84-5.45-1.45-21.12-2.46-23.79-7.88-.48-.96-.79-4.31-.46-4.66.61-.64,14.16,6.19,16.48,6.33,20.93,2.21,42.56,4.59,63.13,2.95,3.9-.31,7.78-.69,11.67-.9.23,1.28-1.64,1.38-2.57,1.61-3.47.88-10.27,2.03-13.74,2.18-4.33.19-9.19-2.55-14.18-.28-4.17,1.89-1.18,4.38,2.11,4.84,16.03,2.28,31.8-2.45,47.27-6.69,3.31-.91,4.13-3.92,3.4,2.47ZM129.16,103.08c-.23.15-2.05-.09-3.04.2-3.96,1.14-7.67,3.9-11.87,4.46l13.51-9.3c1.61.57,1.72,4.44,1.4,4.65Z"/>
    <path class="cls-1" d="M62.74,211.33c12.58-2.8,11.51,16.6-1.89,12.7-4.06-1.18-3.7-11.45,1.89-12.7Z"/>
    <path class="cls-1" d="M76.31,218.36c-5.33-5.96,9.81-16.09,13.33-5.41,2.59,7.86-8.6,10.7-13.33,5.41Z"/>
    <path class="cls-1" d="M50.69,215.56c-.83.74-2.83,1.24-3.96,1.24-4.37,0-9.84-7.74-7.49-11.29.53-.81,4.75-2.46,5.78-2.53,5.9-.38,10.59,8.23,5.67,12.58Z"/>
    <path class="cls-1" d="M100,201.06c10.94-2.36,9.73,14.22-.15,12.86-7.28-1-8.93-10.9.15-12.86Z"/>
    <path class="cls-1" d="M61.82,190.87c3.87-.11,6.46,5.55,6.63,8.83.25,4.92-13.34,8.03-13.8-1.21-.2-4.03,3.08-7.5,7.18-7.62Z"/>
    <path class="cls-1" d="M100.99,233.27c-1.31,1.18-5.02,1.47-6.77,1.17-5.02-.87-5.55-8.48-1.93-11.25.79-.6,5.74-1.76,6.46-1.62,2.2.44,5.61,4.1,5.14,6.62-.1.51-2.55,4.77-2.9,5.08Z"/>
    <path class="cls-1" d="M78.07,191.72c.24-.19,5.59-1.99,5.91-1.99,1.31,0,5.95,2.54,6.54,3.7,2.26,4.43-.35,8.17-4.85,9.17-6.7,1.49-10.45-8.61-7.59-10.87Z"/>
    <path class="cls-1" d="M69.73,237.97c-4.28-4.19,4-13.95,10.95-9.56,4.74,3,.93,11.54-5.09,11.54-.78,0-5.43-1.56-5.86-1.98Z"/>
    <path class="cls-1" d="M60.23,145c-.31.3-3.74.04-4.68-.44-1.5-.77-3.3-5.61-5.19-6.03-2.2-.49-4.66,6.28-6.41,6.29-1.95.01-2.7-1.26-2.36-3.06.13-.68,4.86-7.66,5.58-8.41,2.22-2.28,4.72-3.04,6.99-.43.7.8,4.82,7.5,5.34,8.63.38.84,1.22,2.98.73,3.46Z"/>
    <path class="cls-1" d="M81.65,145.93c-.78-.65,8.36-15.5,13.99-12.59,2.13,1.11,9.21,10.38,5.05,11.61s-6.45-6.46-8.33-6.46c-1.29,0-5.15,6.41-6.02,7.01-.8.55-4.37.69-4.69.43Z"/>
    <path class="cls-1" d="M51.56,225.3c6.64-1.83,10.48,1.47,8.25,8.25-2.83,8.6-15.89-.35-12.19-5.67.23-.33,3.45-2.44,3.94-2.58Z"/>
    <path class="cls-1" d="M64.88,154.32c.19.26.8,4.67,1.66,6.27,1.61,3.01,5.91,3.54,8.59,1.64,1.83-1.3,1.51-5.03,2.4-5.16,4.04-.58,5.05-.15,3.71,3.83-2.08,6.21-13.93,8.71-17.73,3.65-.58-.77-3.27-5.46-3.34-6.06-.31-3.07,3.87-5.3,4.7-4.17Z"/>
    <path class="cls-3" d="M105.23,149.91c.13-.18,2.55-2.75,2.91-3.08,5.46-5.07,6.28.97,2.39,6.1-.82,1.08-5.97,6.35-6.99,6.04-3.11-.95.65-7.58,1.68-9.06Z"/>
    <path class="cls-3" d="M50.91,148.73c1.93,1.93-5.33,9.26-6.94,10.29-1.05.67-3.63,1.49-4.23.88-2.06-2.04,8.63-13.72,11.17-11.17Z"/>
    <path class="cls-3" d="M94.7,158.04c-1.78-1.81,4.43-9.05,5.73-10.57,2.35-2.73,5.04-1.55,4.11,1.31-.74,2.27-7.34,11.8-9.84,9.26Z"/>
    <path class="cls-3" d="M35.08,151.52c1.47-1.04,3.25-3.31,5.12-2.79,4.17,1.15-2.47,8-4.18,8.85-.95.48-4.27.79-4.66.46-1.17-1.01,2.76-3.82,3.26-4.68.42-.72.29-1.31.46-1.83-1.35.96-2.55,2.21-4.04,2.96-1.17.59-2.13.77-2.48-.64-.39-1.56,2.94-6.48,4.3-6.88,3.67-1.08,2.95,2.37,2.22,4.56Z"/>
    <path class="cls-3" d="M93.36,146.93c6.63-2.03.49,10.38-3.79,9.25-.94-.25-1.7-1.52-.95-2.8.6-1.02,4.22-6.29,4.73-6.45Z"/>
  </g>
</svg>